<svg width="27" height="11" viewBox="0 0 27 11" fill="none" xmlns="http://www.w3.org/2000/svg">
<path d="M7.355 11C7.075 11 6.85 10.885 6.68 10.655L3.215 6.095L4.58 4.7L8.165 9.44C8.305 9.63 8.375 9.835 8.375 10.055C8.375 10.335 8.27 10.565 8.06 10.745C7.85 10.915 7.615 11 7.355 11ZM7.535 0.424999C7.775 0.424999 7.97 0.524999 8.12 0.724999C8.28 0.915 8.36 1.11 8.36 1.31C8.36 1.52 8.27 1.715 8.09 1.895L1.805 7.91L1.73 5.765L6.8 0.769999C7.03 0.539999 7.275 0.424999 7.535 0.424999ZM1.055 11C0.775 11 0.55 10.915 0.38 10.745C0.21 10.565 0.125 10.345 0.125 10.085V1.415C0.125 1.155 0.215 0.94 0.395 0.769999C0.575 0.589999 0.805 0.499999 1.085 0.499999C1.365 0.499999 1.585 0.589999 1.745 0.769999C1.915 0.94 2 1.155 2 1.415V10.085C2 10.345 1.915 10.565 1.745 10.745C1.575 10.915 1.345 11 1.055 11ZM17.1841 11C16.9041 11 16.6791 10.885 16.5091 10.655L13.0441 6.095L14.4091 4.7L17.9941 9.44C18.1341 9.63 18.2041 9.835 18.2041 10.055C18.2041 10.335 18.0991 10.565 17.8891 10.745C17.6791 10.915 17.4441 11 17.1841 11ZM17.3641 0.424999C17.6041 0.424999 17.7991 0.524999 17.9491 0.724999C18.1091 0.915 18.1891 1.11 18.1891 1.31C18.1891 1.52 18.0991 1.715 17.9191 1.895L11.6341 7.91L11.5591 5.765L16.6291 0.769999C16.8591 0.539999 17.1041 0.424999 17.3641 0.424999ZM10.8841 11C10.6041 11 10.3791 10.915 10.2091 10.745C10.0391 10.565 9.9541 10.345 9.9541 10.085V1.415C9.9541 1.155 10.0441 0.94 10.2241 0.769999C10.4041 0.589999 10.6341 0.499999 10.9141 0.499999C11.1941 0.499999 11.4141 0.589999 11.5741 0.769999C11.7441 0.94 11.8291 1.155 11.8291 1.415V10.085C11.8291 10.345 11.7441 10.565 11.5741 10.745C11.4041 10.915 11.1741 11 10.8841 11ZM25.5282 9.35C25.7682 9.35 25.9682 9.43 26.1282 9.59C26.2882 9.75 26.3682 9.95 26.3682 10.19C26.3682 10.42 26.2882 10.615 26.1282 10.775C25.9682 10.925 25.7682 11 25.5282 11H20.4282C20.1682 11 19.9632 10.92 19.8132 10.76C19.6632 10.6 19.5882 10.395 19.5882 10.145C19.5882 9.895 19.6782 9.675 19.8582 9.485L23.1282 5.99C23.4982 5.59 23.7882 5.18 23.9982 4.76C24.2182 4.34 24.3282 3.975 24.3282 3.665C24.3282 3.165 24.1832 2.765 23.8932 2.465C23.6032 2.155 23.2182 2 22.7382 2C22.5482 2 22.3532 2.045 22.1532 2.135C21.9532 2.225 21.7582 2.35 21.5682 2.51C21.3882 2.67 21.2182 2.855 21.0582 3.065C20.9382 3.225 20.8182 3.325 20.6982 3.365C20.5782 3.405 20.4682 3.425 20.3682 3.425C20.1482 3.425 19.9432 3.345 19.7532 3.185C19.5732 3.015 19.4832 2.82 19.4832 2.6C19.4832 2.43 19.5382 2.265 19.6482 2.105C19.7682 1.945 19.9132 1.78 20.0832 1.61C20.3332 1.36 20.6132 1.14 20.9232 0.95C21.2332 0.76 21.5532 0.615 21.8832 0.514999C22.2132 0.404999 22.5332 0.349999 22.8432 0.349999C23.5132 0.349999 24.0932 0.484999 24.5832 0.755C25.0832 1.015 25.4682 1.39 25.7382 1.88C26.0082 2.36 26.1432 2.93 26.1432 3.59C26.1432 4.14 25.9782 4.755 25.6482 5.435C25.3282 6.105 24.8932 6.735 24.3432 7.325L22.3182 9.485L22.1532 9.35H25.5282Z" fill="#FF6700"/>
</svg>
